<?xml version="1.0" encoding="UTF-8"?>
<svg id="Design" xmlns="http://www.w3.org/2000/svg" viewBox="0 0 288 288">
  <defs>
    <style>
      .cls-1, .cls-2 {
        fill: #64c050;
      }

      .cls-3 {
        fill: #1e6e54;
      }

      .cls-4 {
        letter-spacing: 0em;
      }

      .cls-5 {
        letter-spacing: 0em;
      }

      .cls-6 {
        fill: #498d43;
      }

      .cls-7 {
        fill: #524434;
      }

      .cls-8 {
        fill: #9ed15d;
      }

      .cls-9 {
        fill: #000a21;
      }

      .cls-10 {
        fill: #286d58;
      }

      .cls-11 {
        fill: #089264;
      }

      .cls-12 {
        fill: #077c5d;
      }

      .cls-13 {
        fill: #8bc172;
      }

      .cls-14 {
        fill: #8cc475;
      }

      .cls-15 {
        letter-spacing: 0em;
      }

      .cls-16 {
        fill: #258b4f;
      }

      .cls-17 {
        fill: none;
      }

      .cls-18 {
        fill: #bede7d;
      }

      .cls-2 {
        font-family: Gabriola, Gabriola;
        font-size: 23.28px;
      }

      .cls-19 {
        fill: #cfde6c;
      }
    </style>
  </defs>
  <rect className="cls-17" width="288" height="288"/>
  <ellipse className="cls-9" cx="146.05" cy="215.21" rx="65.5" ry="9.06"/>
  <g>
    <path className="cls-7" d="m139.29,148.47c5.83,18.74-4.8,57.74-7.18,66.23h28.41c-2.73-5.54-10.4-33.49-8.26-55.85,2.79-29.07,12.63-37.77,12.63-37.77-4.55.8-10.19,6.33-10.19,6.33.38-8.39,6.56-20.14,6.56-20.14-10.26,8.09-13.39,21.94-13.39,21.94-4.49-19.8-16.03-26.51-16.03-26.51,8.28,10.99,5.91,24.42,5.91,24.42-8.98-7.32-18.36-5.19-18.36-5.19,0,0,12.86,3.97,19.89,26.55Z"/>
    <path className="cls-13" d="m165.56,70.98c-1.76-5.72-1.36-9-1.36-9-9.89,6.27-20.15,16.5-21.69,27.51-.59,4.24.38,7.7,1.94,10.28,1.1,1.81,3.03,3.33,5.3,4.3.25-4.19,1.61-15.79,9.06-30.16,0,0-5.47,15.91-5.37,31.12,1.66.19,3.36.09,4.99-.47,4.35-1.49,7.38-5.11,8.94-9.87,2.32-7.07.9-14.92-1.81-23.71Z"/>
    <path className="cls-11" d="m192.89,103.33c1.7-5.09,3.71-7.27,3.71-7.27-10.48-.6-23.31,1.49-30.18,8.71-2.64,2.78-3.75,5.81-3.96,8.5-.15,1.9.47,4.01,1.62,5.9,2.37-2.92,9.42-10.66,22.36-17.24,0,0-12.3,8.74-20.18,19.87,1.11,1,2.4,1.82,3.88,2.26,3.95,1.19,8.05.13,11.67-2.52,5.38-3.94,8.46-10.4,11.07-18.22Z"/>
    <path className="cls-18" d="m189.95,74.82c.06-3.73.93-5.61.93-5.61-7.08,1.81-15.15,5.9-18.19,12.14-1.17,2.4-1.26,4.65-.83,6.48.3,1.29,1.16,2.56,2.32,3.57.95-2.44,4-9.06,11.2-16.15,0,0-6.32,8.39-9.2,17.44.95.43,1.98.7,3.05.68,2.87-.04,5.37-1.61,7.21-4.13,2.74-3.75,3.42-8.68,3.51-14.42Z"/>
    <path className="cls-10" d="m184.08,53.63c-.34-3.72.32-5.67.32-5.67-6.85,2.56-14.43,7.5-16.78,14.02-.9,2.51-.76,4.75-.13,6.53.44,1.25,1.43,2.43,2.69,3.3.69-2.53,3.01-9.44,9.4-17.26,0,0-5.38,9.02-7.28,18.32.99.33,2.04.48,3.11.35,2.85-.35,5.16-2.18,6.73-4.88,2.32-4.02,2.46-9,1.94-14.71Z"/>
    <path className="cls-8" d="m183.18,141.83c3.49-1.33,5.55-1.22,5.55-1.22-4.31-5.9-11.1-11.88-18.02-12.38-2.66-.19-4.78.55-6.32,1.63-1.09.76-1.95,2.03-2.46,3.48,2.62-.02,9.9.35,19.16,4.41,0,0-10.14-2.75-19.61-2.07-.05,1.04.08,2.1.5,3.09,1.1,2.65,3.49,4.39,6.51,5.16,4.5,1.15,9.33-.05,14.69-2.1Z"/>
    <path className="cls-1" d="m203.02,127.05c2.27-1.81,3.82-2.21,3.82-2.21-4.57-3.35-11-6.17-16.23-4.91-2.01.48-3.41,1.53-4.29,2.69-.62.82-.97,1.96-1,3.15,1.93-.63,7.4-2.07,15.2-1.25,0,0-8.14.35-14.98,3.08.21.78.56,1.53,1.09,2.17,1.44,1.7,3.61,2.42,6.03,2.28,3.59-.2,6.89-2.23,10.37-5.01Z"/>
    <path className="cls-3" d="m208.73,82.17c1.46-2.5,2.75-3.44,2.75-3.44-5.48-1.46-12.49-1.75-16.91,1.32-1.7,1.18-2.62,2.66-3.02,4.07-.28.99-.19,2.17.21,3.3,1.57-1.29,6.15-4.61,13.71-6.68,0,0-7.46,3.28-12.84,8.31.48.65,1.07,1.22,1.81,1.62,1.96,1.06,4.24.95,6.45-.06,3.28-1.5,5.61-4.58,7.84-8.43Z"/>
    <path className="cls-1" d="m159.9,51.9c-.16-2.89.41-4.39.41-4.39-5.38,1.79-11.4,5.39-13.41,10.38-.77,1.92-.73,3.66-.29,5.06.3.98,1.03,1.92,1.99,2.64.61-1.94,2.61-7.23,7.79-13.11,0,0-4.43,6.83-6.17,13.99.76.28,1.57.43,2.4.36,2.22-.19,4.06-1.54,5.36-3.59,1.92-3.05,2.17-6.91,1.93-11.35Z"/>
    <path className="cls-14" d="m88.65,124.67c-3.88-2.74-6.46-3.25-6.46-3.25,7.18-5.92,17.44-11.13,26.13-9.57,3.34.6,5.72,2.19,7.28,4,1.1,1.28,1.77,3.11,1.93,5.06-3.22-.85-12.31-2.69-25.01-.62,0,0,13.36-.19,24.82,3.64-.27,1.3-.77,2.56-1.59,3.65-2.2,2.91-5.68,4.31-9.66,4.31-5.91,0-11.49-3.01-17.45-7.22Z"/>
    <path className="cls-19" d="m108.66,81.37c-.72-5.32-2.28-7.84-2.28-7.84,10.41,1.38,22.61,5.85,28,14.23,2.07,3.23,2.59,6.41,2.29,9.09-.21,1.89-1.22,3.85-2.7,5.49-1.78-3.31-7.25-12.24-18.72-21.14,0,0,10.44,10.89,16.08,23.31-1.28.78-2.7,1.34-4.24,1.49-4.1.42-7.93-1.38-10.99-4.67-4.54-4.88-6.35-11.81-7.45-19.97Z"/>
    <path className="cls-12" d="m129.46,58.34c1.43-3.74,1.3-5.95,1.3-5.95,6.33,4.61,12.73,11.89,13.27,19.3.21,2.85-.59,5.12-1.74,6.77-.81,1.16-2.17,2.09-3.73,2.64.02-2.8-.38-10.61-4.73-20.52,0,0,2.95,10.86,2.23,21-1.11.05-2.25-.09-3.31-.53-2.84-1.18-4.7-3.73-5.53-6.98-1.24-4.82.05-10,2.24-15.74Z"/>
    <path className="cls-6" d="m104.8,53.04c-.12-3.82-1.04-5.73-1.04-5.73,7.28,1.75,15.61,5.82,18.81,12.16,1.23,2.44,1.36,4.74.95,6.62-.29,1.33-1.15,2.64-2.32,3.7-1.01-2.48-4.24-9.22-11.72-16.38,0,0,6.6,8.5,9.69,17.72-.96.46-2.02.75-3.12.75-2.94,0-5.52-1.57-7.45-4.12-2.86-3.8-3.63-8.84-3.81-14.72Z"/>
    <path className="cls-3" d="m86.03,97.73c-2.58-3.05-4.58-4.01-4.58-4.01,7.1-3.31,16.56-5.4,23.31-2.29,2.6,1.19,4.2,2.99,5.09,4.8.62,1.27.78,2.91.51,4.54-2.45-1.37-9.47-4.79-20.25-5.78,0,0,10.93,2.66,19.47,8.2-.49,1-1.16,1.92-2.06,2.64-2.41,1.91-5.54,2.31-8.78,1.47-4.82-1.24-8.73-4.87-12.7-9.57Z"/>
    <path className="cls-18" d="m88.68,77.59c-1.09-2.28-2.15-3.19-2.15-3.19,4.87-.88,11-.63,14.63,2.35,1.4,1.15,2.09,2.51,2.34,3.75.18.88,0,1.91-.42,2.85-1.27-1.23-5.02-4.45-11.45-6.79,0,0,6.26,3.39,10.58,8.15-.46.53-1.02.99-1.69,1.28-1.78.78-3.76.52-5.61-.51-2.74-1.54-4.55-4.39-6.22-7.89Z"/>
    <path className="cls-16" d="m133.61,42.17c.16-2.53-.33-3.84-.33-3.84,4.69,1.6,9.92,4.79,11.63,9.17.66,1.68.61,3.2.22,4.42-.27.85-.92,1.67-1.76,2.29-.51-1.7-2.22-6.33-6.7-11.51,0,0,3.82,6,5.28,12.27-.66.24-1.37.37-2.1.3-1.93-.18-3.54-1.37-4.65-3.18-1.65-2.68-1.85-6.05-1.6-9.93Z"/>
    <path className="cls-3" d="m117.16,111c-1.14-2.24-2.22-3.11-2.22-3.11,4.82-1,10.91-.92,14.59,1.95,1.42,1.11,2.14,2.43,2.42,3.67.2.87.06,1.89-.34,2.85-1.3-1.19-5.11-4.29-11.56-6.45,0,0,6.31,3.2,10.73,7.82-.45.54-.99,1.01-1.64,1.32-1.75.82-3.72.62-5.59-.36-2.77-1.45-4.64-4.24-6.39-7.68Z"/>
    <path className="cls-1" d="m114.69,141c-2.51.14-3.75.77-3.75.77,1.03-4.81,3.57-10.35,7.68-12.56,1.58-.85,3.09-.97,4.34-.73.88.17,1.76.71,2.47,1.46-1.61.71-5.99,2.94-10.57,7.97,0,0,5.48-4.48,11.49-6.66.32.63.52,1.31.54,2.04.05,1.93-.94,3.65-2.59,4.96-2.45,1.94-5.75,2.53-9.61,2.74Z"/>
  </g>
  <text className="cls-2" transform="translate(78.19 251.01)"><tspan x="0" y="0">G</tspan><tspan className="cls-15" x="11.67" y="0">r</tspan><tspan x="18.31" y="0">een</tspan><tspan className="cls-4" x="42.64" y="0">N</tspan><tspan x="54.83" y="0">est Nurser</tspan><tspan className="cls-5" x="128.08" y="0">y</tspan></text>
</svg>